<svg width="656.055" height="86.963" viewBox="0 0 656.055 86.963" xmlns="http://www.w3.org/2000/svg"><g id="svgGroup" stroke-linecap="round" fill-rule="evenodd" font-size="9pt" stroke="#ffffff" stroke-width="0.25mm" fill="#ffffff" style="stroke:#ffffff;stroke-width:0.25mm;fill:#ffffff"><path d="M 67.774 38.379 L 67.774 39.307 A 56.852 56.852 0 0 1 67.185 46.131 A 64.617 64.617 0 0 1 66.919 47.803 Q 66.163 52.197 64.795 56.592 A 80.354 80.354 0 0 1 61.524 65.283 A 74.105 74.105 0 0 1 57.251 73.511 A 69.493 69.493 0 0 1 52.149 80.884 A 47.429 47.429 0 0 1 47.906 85.572 A 41.529 41.529 0 0 1 46.387 86.963 L 39.112 82.764 Q 40.821 79.883 42.212 76.489 A 78.913 78.913 0 0 0 44.657 69.617 A 85.879 85.879 0 0 0 44.727 69.385 A 86.85 86.85 0 0 0 46.656 61.768 Q 47.461 57.861 47.999 54.004 A 114.704 114.704 0 0 0 48.804 46.411 A 104.299 104.299 0 0 0 49.047 41.448 A 88.933 88.933 0 0 0 49.073 39.307 A 683.378 683.378 0 0 0 49.067 36.679 Q 49.062 35.299 49.051 33.766 A 1139.083 1139.083 0 0 0 49.048 33.325 Q 49.024 29.981 48.658 26.514 A 48.528 48.528 0 0 0 47.461 19.751 A 21.278 21.278 0 0 0 46.025 15.73 A 18.311 18.311 0 0 0 44.996 13.867 A 12.789 12.789 0 0 0 40.796 9.717 A 10.252 10.252 0 0 0 37.62 8.475 Q 36.15 8.154 34.424 8.154 Q 31.299 8.154 28.992 9.142 A 10.064 10.064 0 0 0 28.638 9.302 A 12.478 12.478 0 0 0 24.537 12.378 A 15.084 15.084 0 0 0 21.995 16.492 A 17.119 17.119 0 0 0 21.851 16.846 A 31.264 31.264 0 0 0 20.289 22.193 A 41.478 41.478 0 0 0 19.556 27.857 A 96.855 96.855 0 0 0 19.409 31.303 A 80.888 80.888 0 0 0 19.385 33.252 L 19.385 46.875 L 40.43 46.875 L 40.43 54.932 L 19.385 54.932 L 19.385 72.022 L 0 72.022 L 0 36.279 A 42.379 42.379 0 0 1 1.207 26.03 A 37.699 37.699 0 0 1 2.442 22.022 A 34.899 34.899 0 0 1 7.747 12.454 A 32.644 32.644 0 0 1 9.351 10.571 A 31.784 31.784 0 0 1 20.093 2.954 A 32.754 32.754 0 0 1 30.086 0.39 A 40.18 40.18 0 0 1 34.083 0.195 A 32.537 32.537 0 0 1 41.252 0.965 A 28.992 28.992 0 0 1 43.873 1.685 A 31.751 31.751 0 0 1 52.198 5.786 A 33.199 33.199 0 0 1 58.912 11.987 A 36.551 36.551 0 0 1 63.843 19.824 A 42.545 42.545 0 0 1 66.846 28.809 A 41.145 41.145 0 0 1 67.782 37.539 A 41.586 41.586 0 0 1 67.774 38.379 Z M 216.993 38.379 L 216.993 39.307 A 56.852 56.852 0 0 1 216.404 46.131 A 64.617 64.617 0 0 1 216.138 47.803 Q 215.381 52.197 214.014 56.592 A 80.354 80.354 0 0 1 210.743 65.283 A 74.105 74.105 0 0 1 206.47 73.511 A 69.493 69.493 0 0 1 201.368 80.884 A 47.429 47.429 0 0 1 197.124 85.572 A 41.529 41.529 0 0 1 195.606 86.963 L 188.331 82.764 Q 190.04 79.883 191.431 76.489 A 78.913 78.913 0 0 0 193.875 69.617 A 85.879 85.879 0 0 0 193.946 69.385 A 86.85 86.85 0 0 0 195.875 61.768 Q 196.68 57.861 197.217 54.004 A 114.704 114.704 0 0 0 198.023 46.411 A 104.299 104.299 0 0 0 198.265 41.448 A 88.933 88.933 0 0 0 198.292 39.307 A 683.378 683.378 0 0 0 198.286 36.679 Q 198.281 35.299 198.27 33.766 A 1139.083 1139.083 0 0 0 198.267 33.325 Q 198.243 29.981 197.876 26.514 A 48.528 48.528 0 0 0 196.68 19.751 A 21.278 21.278 0 0 0 195.244 15.73 A 18.311 18.311 0 0 0 194.214 13.867 A 12.789 12.789 0 0 0 190.015 9.717 A 10.252 10.252 0 0 0 186.839 8.475 Q 185.369 8.154 183.643 8.154 Q 180.517 8.154 178.211 9.142 A 10.064 10.064 0 0 0 177.857 9.302 A 12.478 12.478 0 0 0 173.755 12.378 A 15.084 15.084 0 0 0 171.214 16.492 A 17.119 17.119 0 0 0 171.07 16.846 A 31.264 31.264 0 0 0 169.507 22.193 A 41.478 41.478 0 0 0 168.775 27.857 A 96.855 96.855 0 0 0 168.628 31.303 A 80.888 80.888 0 0 0 168.604 33.252 L 168.604 46.875 L 189.649 46.875 L 189.649 54.932 L 168.604 54.932 L 168.604 72.022 L 149.219 72.022 L 149.219 36.279 A 42.379 42.379 0 0 1 150.426 26.03 A 37.699 37.699 0 0 1 151.661 22.022 A 34.899 34.899 0 0 1 156.966 12.454 A 32.644 32.644 0 0 1 158.57 10.571 A 31.784 31.784 0 0 1 169.312 2.954 A 32.754 32.754 0 0 1 179.304 0.39 A 40.18 40.18 0 0 1 183.301 0.195 A 32.537 32.537 0 0 1 190.471 0.965 A 28.992 28.992 0 0 1 193.091 1.685 A 31.751 31.751 0 0 1 201.417 5.786 A 33.199 33.199 0 0 1 208.13 11.987 A 36.551 36.551 0 0 1 213.062 19.824 A 42.545 42.545 0 0 1 216.065 28.809 A 41.145 41.145 0 0 1 217.001 37.539 A 41.586 41.586 0 0 1 216.993 38.379 Z M 595.411 38.379 L 595.411 39.307 A 56.852 56.852 0 0 1 594.822 46.131 A 64.617 64.617 0 0 1 594.556 47.803 Q 593.799 52.197 592.432 56.592 A 80.354 80.354 0 0 1 589.161 65.283 A 74.105 74.105 0 0 1 584.888 73.511 A 69.493 69.493 0 0 1 579.786 80.884 A 47.429 47.429 0 0 1 575.542 85.572 A 41.529 41.529 0 0 1 574.024 86.963 L 566.749 82.764 Q 568.458 79.883 569.849 76.489 A 78.913 78.913 0 0 0 572.293 69.617 A 85.879 85.879 0 0 0 572.364 69.385 A 86.85 86.85 0 0 0 574.292 61.768 Q 575.098 57.861 575.635 54.004 A 114.704 114.704 0 0 0 576.441 46.411 A 104.299 104.299 0 0 0 576.683 41.448 A 88.933 88.933 0 0 0 576.709 39.307 A 683.378 683.378 0 0 0 576.704 36.679 Q 576.699 35.299 576.688 33.766 A 1139.083 1139.083 0 0 0 576.685 33.325 Q 576.661 29.981 576.294 26.514 A 48.528 48.528 0 0 0 575.098 19.751 A 21.278 21.278 0 0 0 573.662 15.73 A 18.311 18.311 0 0 0 572.632 13.867 A 12.789 12.789 0 0 0 568.433 9.717 A 10.252 10.252 0 0 0 565.257 8.475 Q 563.787 8.154 562.061 8.154 Q 558.935 8.154 556.629 9.142 A 10.064 10.064 0 0 0 556.275 9.302 A 12.478 12.478 0 0 0 552.173 12.378 A 15.084 15.084 0 0 0 549.632 16.492 A 17.119 17.119 0 0 0 549.488 16.846 A 31.264 31.264 0 0 0 547.925 22.193 A 41.478 41.478 0 0 0 547.193 27.857 A 96.855 96.855 0 0 0 547.046 31.303 A 80.888 80.888 0 0 0 547.022 33.252 L 547.022 46.875 L 568.067 46.875 L 568.067 54.932 L 547.022 54.932 L 547.022 72.022 L 527.637 72.022 L 527.637 36.279 A 42.379 42.379 0 0 1 528.844 26.03 A 37.699 37.699 0 0 1 530.079 22.022 A 34.899 34.899 0 0 1 535.384 12.454 A 32.644 32.644 0 0 1 536.988 10.571 A 31.784 31.784 0 0 1 547.73 2.954 A 32.754 32.754 0 0 1 557.722 0.39 A 40.18 40.18 0 0 1 561.719 0.195 A 32.537 32.537 0 0 1 568.889 0.965 A 28.992 28.992 0 0 1 571.509 1.685 A 31.751 31.751 0 0 1 579.834 5.786 A 33.199 33.199 0 0 1 586.548 11.987 A 36.551 36.551 0 0 1 591.48 19.824 A 42.545 42.545 0 0 1 594.483 28.809 A 41.145 41.145 0 0 1 595.419 37.539 A 41.586 41.586 0 0 1 595.411 38.379 Z M 76.172 59.766 L 86.133 49.658 Q 87.5 53.028 89.893 55.884 A 28.77 28.77 0 0 0 94.787 60.532 A 26.804 26.804 0 0 0 95.142 60.791 A 26.438 26.438 0 0 0 100.214 63.667 A 24.275 24.275 0 0 0 101.075 64.014 Q 104.151 65.186 106.885 65.186 A 39.8 39.8 0 0 0 110.947 64.986 A 33.469 33.469 0 0 0 112.94 64.722 A 19.559 19.559 0 0 0 115.512 64.129 A 14.508 14.508 0 0 0 117.872 63.184 A 9.156 9.156 0 0 0 120.046 61.659 A 8.024 8.024 0 0 0 121.167 60.327 A 6.806 6.806 0 0 0 122.151 57.965 Q 122.35 57.053 122.363 56.001 A 11.9 11.9 0 0 0 122.364 55.86 A 7.576 7.576 0 0 0 122.175 54.128 A 5.766 5.766 0 0 0 121.436 52.344 Q 120.508 50.879 119.019 49.829 A 14.739 14.739 0 0 0 116.775 48.536 A 17.585 17.585 0 0 0 115.625 48.047 Q 113.721 47.315 111.744 46.802 Q 109.766 46.289 107.862 45.874 Q 105.958 45.459 104.493 45.02 A 399.271 399.271 0 0 1 100.034 43.706 A 453.594 453.594 0 0 1 98.487 43.237 Q 95.362 42.285 92.334 41.065 Q 89.307 39.844 86.597 38.257 Q 83.887 36.67 81.836 34.497 Q 79.786 32.324 78.565 29.468 A 14.882 14.882 0 0 1 77.546 25.775 A 19.703 19.703 0 0 1 77.344 22.901 A 30.727 30.727 0 0 1 77.586 18.955 A 22.423 22.423 0 0 1 78.443 15.015 A 20.062 20.062 0 0 1 80.156 11.087 A 17.08 17.08 0 0 1 81.543 9.033 A 18.82 18.82 0 0 1 86.28 4.761 A 25.839 25.839 0 0 1 91.879 2.112 A 28.732 28.732 0 0 1 92.286 1.978 A 37.586 37.586 0 0 1 97.876 0.659 A 42.519 42.519 0 0 1 99.244 0.464 Q 102.93 0 106.788 0 A 49.351 49.351 0 0 1 112.122 0.276 A 37.954 37.954 0 0 1 116.382 0.977 Q 120.704 1.953 124.366 3.76 Q 128.028 5.567 131.08 8.081 Q 134.131 10.596 136.817 13.672 L 126.856 23.779 A 22.972 22.972 0 0 0 123.738 17.609 A 21.767 21.767 0 0 0 123.609 17.432 A 25.94 25.94 0 0 0 120.083 13.498 A 23.329 23.329 0 0 0 118.995 12.573 A 21.378 21.378 0 0 0 115.049 10.056 A 19.119 19.119 0 0 0 113.672 9.448 A 16.276 16.276 0 0 0 110.77 8.591 A 13.062 13.062 0 0 0 108.301 8.35 A 42.751 42.751 0 0 0 104.681 8.497 A 33.586 33.586 0 0 0 102.1 8.814 A 19.71 19.71 0 0 0 99.699 9.354 Q 98.35 9.753 97.242 10.327 A 8.379 8.379 0 0 0 95.085 11.902 A 7.547 7.547 0 0 0 94.092 13.159 Q 93 14.893 92.97 17.435 A 12.219 12.219 0 0 0 92.969 17.578 A 8.89 8.89 0 0 0 93.106 19.179 Q 93.288 20.17 93.709 20.978 A 5.519 5.519 0 0 0 93.799 21.143 A 7.914 7.914 0 0 0 96.021 23.633 Q 97.413 24.658 99.17 25.318 A 36.45 36.45 0 0 0 102.808 26.465 A 67.142 67.142 0 0 0 106.519 27.319 A 46.068 46.068 0 0 1 108.271 27.704 A 35.729 35.729 0 0 1 109.864 28.125 A 1418.151 1418.151 0 0 1 112.867 28.98 A 1638.942 1638.942 0 0 1 116.016 29.883 A 67.853 67.853 0 0 1 122.364 32.056 A 47.819 47.819 0 0 1 128.321 34.912 A 22.049 22.049 0 0 1 133.268 38.711 A 20.805 20.805 0 0 1 133.301 38.745 Q 135.45 40.967 136.719 43.872 A 14.933 14.933 0 0 1 137.795 47.73 A 19.589 19.589 0 0 1 137.989 50.537 Q 137.989 55.002 136.879 58.429 A 18.783 18.783 0 0 1 136.841 58.545 A 19.859 19.859 0 0 1 135.045 62.516 A 17.009 17.009 0 0 1 133.619 64.551 A 18.898 18.898 0 0 1 128.711 68.799 A 27.421 27.421 0 0 1 122.743 71.469 A 30.33 30.33 0 0 1 122.535 71.533 Q 119.19 72.559 115.455 72.998 A 64.933 64.933 0 0 1 107.862 73.438 A 59.852 59.852 0 0 1 102.396 73.198 A 47.641 47.641 0 0 1 98.487 72.681 Q 94.19 71.924 90.406 70.288 Q 86.622 68.653 83.13 66.065 A 47.197 47.197 0 0 1 78.993 62.596 A 59.702 59.702 0 0 1 76.172 59.766 Z M 467.481 41.358 L 467.481 72.022 L 448.096 72.022 L 448.096 1.709 L 467.481 1.709 L 467.481 32.422 L 493.165 32.422 L 493.165 1.709 L 512.549 1.709 L 512.549 72.022 L 493.165 72.022 L 493.165 41.358 L 467.481 41.358 Z M 436.768 19.141 L 428.418 22.656 A 25.187 25.187 0 0 0 426.301 17.683 A 23.041 23.041 0 0 0 425.806 16.846 Q 424.17 14.209 421.9 12.329 A 17.286 17.286 0 0 0 416.749 9.4 A 17.507 17.507 0 0 0 412.151 8.417 A 21.007 21.007 0 0 0 410.45 8.35 A 19.543 19.543 0 0 0 406.213 8.794 A 16.638 16.638 0 0 0 403.736 9.546 Q 400.684 10.742 398.267 12.842 Q 395.85 14.942 394.043 17.725 Q 392.237 20.508 391.016 23.657 A 34.209 34.209 0 0 0 389.209 30.176 A 38.644 38.644 0 0 0 388.626 36.364 A 35.603 35.603 0 0 0 388.624 36.768 A 44.365 44.365 0 0 0 389.82 46.973 Q 391.016 52.051 393.628 56.104 A 20.701 20.701 0 0 0 400.391 62.671 Q 404.542 65.186 410.45 65.186 A 16.6 16.6 0 0 0 416.358 64.136 A 18.258 18.258 0 0 0 421.412 61.255 Q 423.682 59.424 425.391 56.934 Q 427.1 54.444 428.125 51.563 L 436.573 54.932 Q 434.717 59.57 431.495 63.062 Q 428.272 66.553 424.146 68.848 Q 420.02 71.143 415.308 72.29 A 40.001 40.001 0 0 1 405.811 73.438 A 38.403 38.403 0 0 1 395.875 72.168 A 36.979 36.979 0 0 1 387.012 68.555 A 35.578 35.578 0 0 1 379.566 62.891 A 35.792 35.792 0 0 1 373.853 55.518 Q 371.485 51.465 370.191 46.704 A 37.72 37.72 0 0 1 368.897 36.768 A 37.72 37.72 0 0 1 370.191 26.831 Q 371.485 22.07 373.853 17.993 A 35.508 35.508 0 0 1 379.566 10.596 A 35.578 35.578 0 0 1 387.012 4.932 A 36.979 36.979 0 0 1 395.875 1.319 A 38.403 38.403 0 0 1 405.811 0.049 Q 410.792 0.049 415.552 1.221 Q 420.313 2.393 424.415 4.761 Q 428.516 7.129 431.714 10.718 A 26.722 26.722 0 0 1 436.283 17.952 A 30.796 30.796 0 0 1 436.768 19.141 Z M 315.528 10.694 L 315.528 72.022 L 296.143 72.022 L 296.143 10.694 L 277.002 10.694 L 277.002 1.709 L 334.668 1.709 L 334.668 10.694 L 315.528 10.694 Z M 636.915 10.694 L 636.915 72.022 L 617.53 72.022 L 617.53 10.694 L 598.389 10.694 L 598.389 1.709 L 656.055 1.709 L 656.055 10.694 L 636.915 10.694 Z M 280.079 63.086 L 280.079 72.022 L 229.59 72.022 L 229.59 1.709 L 248.975 1.709 L 248.975 63.086 L 280.079 63.086 Z" vector-effect="non-scaling-stroke"/></g></svg>