<svg width="271pt" height="44pt" viewBox="0 0 271 44" xmlns="http://www.w3.org/2000/svg"><g id="fontsvg1708235383715" stroke-linecap="round" fill-rule="evenodd" fill="#FFF"><path d="M 172.29 14.259 A 3.173 3.173 0 0 0 172.25 13.731 Q 172.091 12.792 171.297 12.76 A 1.411 1.411 0 0 0 171.24 12.759 Q 170.84 12.759 170.29 12.959 Q 169.74 13.159 169.24 13.309 A 13.52 13.52 0 0 0 167.921 14.117 Q 167.281 14.565 166.785 15.043 A 7.132 7.132 0 0 0 166.365 15.484 A 34.289 34.289 0 0 0 165.074 17.06 A 42.15 42.15 0 0 0 164.29 18.109 Q 163.24 19.559 162.49 21.209 Q 161.74 22.859 161.34 24.309 A 17.806 17.806 0 0 0 161.03 25.644 Q 160.309 29.44 161.996 31.131 A 3.671 3.671 0 0 0 162.44 31.509 Q 163.456 32.235 164.589 32.235 A 3.558 3.558 0 0 0 164.665 32.234 A 5.198 5.198 0 0 0 165.451 32.161 Q 166.101 32.048 166.565 31.759 A 45.797 45.797 0 0 1 167.946 30.934 A 42.061 42.061 0 0 1 167.99 30.909 A 4.766 4.766 0 0 1 168.952 30.497 A 6.075 6.075 0 0 1 169.615 30.334 Q 170.406 30.185 171.527 30.474 A 8.578 8.578 0 0 1 171.915 30.584 A 4.969 4.969 0 0 1 172.451 30.781 Q 173.312 31.161 173.39 31.709 Q 173.49 32.409 173.39 33.159 A 6.616 6.616 0 0 0 173.342 33.663 Q 173.32 34.043 173.351 34.379 A 3.936 3.936 0 0 0 173.365 34.509 A 0.687 0.687 0 0 0 173.697 35.014 Q 173.963 35.188 174.44 35.259 A 1.383 1.383 0 0 1 174.667 35.663 Q 174.982 36.57 173.746 37.727 A 8.04 8.04 0 0 1 173.24 38.159 Q 172.69 38.609 172.19 39.009 Q 167.89 41.759 163.04 42.059 Q 161.064 42.189 158.92 41.689 A 18.988 18.988 0 0 1 156.54 40.959 A 8.395 8.395 0 0 1 151.36 35.35 A 14.863 14.863 0 0 1 150.74 32.209 Q 149.89 25.909 152.34 19.159 A 33.669 33.669 0 0 1 158.508 8.647 A 38.075 38.075 0 0 1 158.54 8.609 A 28.618 28.618 0 0 1 160.99 6.023 Q 163.488 3.716 165.94 2.809 A 16.281 16.281 0 0 1 173.527 0.968 A 18.396 18.396 0 0 1 175.34 1.059 A 12.594 12.594 0 0 1 178.057 1.702 Q 179.751 2.326 180.873 3.436 A 6.777 6.777 0 0 1 182.34 5.609 A 8.896 8.896 0 0 1 183.041 8.834 Q 183.125 11.261 182.065 14.149 A 21.716 21.716 0 0 1 181.79 14.859 A 5.423 5.423 0 0 1 179.919 17.249 A 7.422 7.422 0 0 1 178.94 17.859 Q 177.14 18.859 175.04 18.859 A 5.096 5.096 0 0 1 174.091 18.778 Q 172.791 18.531 172.34 17.534 A 3.533 3.533 0 0 1 172.049 16.427 Q 171.956 15.509 172.258 14.375 A 8.584 8.584 0 0 1 172.29 14.259 Z M 256.39 17.209 L 256.19 18.309 A 3.314 3.314 0 0 0 257.118 18.586 Q 257.651 18.666 258.278 18.61 A 6.472 6.472 0 0 0 258.515 18.584 Q 259.89 18.409 261.065 18.234 A 9.523 9.523 0 0 1 261.594 18.17 Q 262.164 18.117 262.606 18.157 A 3.192 3.192 0 0 1 262.965 18.209 Q 263.69 18.359 263.265 19.684 Q 262.84 21.009 261.715 22.659 A 6.227 6.227 0 0 1 259.053 24.851 A 7.811 7.811 0 0 1 258.54 25.059 A 84.131 84.131 0 0 0 257.976 25.17 Q 257.278 25.309 256.908 25.398 A 7.464 7.464 0 0 0 256.765 25.434 Q 256.401 25.53 256.17 25.582 A 6.002 6.002 0 0 1 256.04 25.609 Q 255.713 25.656 254.247 25.747 A 176.089 176.089 0 0 1 254.04 25.759 Q 252.184 28.918 251.482 30.955 A 9.703 9.703 0 0 0 251.19 31.959 Q 250.993 32.844 251.425 32.859 A 0.434 0.434 0 0 0 251.44 32.859 Q 254.314 33.157 255.739 33.159 A 13.671 13.671 0 0 0 255.765 33.159 Q 257.19 33.159 260.09 32.759 Q 260.77 32.986 261.022 33.299 A 0.677 0.677 0 0 1 261.14 33.509 A 2.165 2.165 0 0 1 261.253 34.198 A 2.252 2.252 0 0 1 261.24 34.434 Q 261.19 34.909 261.29 35.359 A 0.66 0.66 0 0 0 261.469 35.674 Q 261.707 35.921 262.24 36.109 A 0.445 0.445 0 0 1 262.47 36.272 Q 262.632 36.5 262.515 36.984 A 3.156 3.156 0 0 1 262.294 37.594 Q 262.158 37.882 261.956 38.187 A 6.725 6.725 0 0 1 261.69 38.559 Q 260.04 40.709 257.79 41.559 Q 254.823 42.301 252.909 42.533 A 16.234 16.234 0 0 1 252.14 42.609 Q 248.74 42.859 244.74 42.359 A 10.705 10.705 0 0 1 243.187 41.966 Q 240.369 40.999 240.49 38.709 Q 240.49 28.209 245.09 17.609 A 140.084 140.084 0 0 1 247.121 13.16 A 167.954 167.954 0 0 1 248.49 10.359 Q 248.89 9.559 248.965 8.559 Q 249.04 7.559 249.09 6.609 Q 249.14 5.659 249.39 4.909 A 1.614 1.614 0 0 1 250.283 3.925 A 2.233 2.233 0 0 1 250.44 3.859 A 65.371 65.371 0 0 1 255.389 2.097 Q 261.926 0.081 266.317 0.582 A 13.672 13.672 0 0 1 266.89 0.659 Q 268.132 0.689 268.876 1.182 A 2.254 2.254 0 0 1 269.665 2.084 A 3.694 3.694 0 0 1 270.045 3.734 Q 270.045 4.179 269.947 4.65 A 5.547 5.547 0 0 1 269.815 5.159 A 6.912 6.912 0 0 1 268.804 7.157 A 9.334 9.334 0 0 1 267.765 8.359 A 6.62 6.62 0 0 1 264.451 10.115 A 8.281 8.281 0 0 1 263.94 10.209 A 138.823 138.823 0 0 0 262.915 10.509 Q 260.868 11.116 260.34 11.359 A 4.792 4.792 0 0 0 259.44 11.913 A 3.447 3.447 0 0 0 258.54 12.959 Q 257.84 14.059 257.24 15.059 Q 256.64 16.059 256.39 17.209 Z M 37.678 42.071 A 15.616 15.616 0 0 0 38.29 42.059 A 27.321 27.321 0 0 0 38.798 42.055 Q 42.578 41.984 45.39 40.859 Q 51.19 38.559 53.59 33.959 Q 56.84 27.809 54.04 23.209 Q 53.24 21.909 52.165 20.909 Q 51.09 19.909 50.115 19.109 A 38.68 38.68 0 0 1 50.052 19.058 Q 49.117 18.287 48.415 17.609 Q 47.69 16.909 47.59 16.259 A 9.994 9.994 0 0 1 47.587 16.24 Q 47.378 14.828 47.648 13.883 A 2.375 2.375 0 0 1 48.84 12.359 A 2.902 2.902 0 0 1 49.126 12.231 Q 50.663 11.637 54.39 11.909 Q 56.238 11.682 57.371 11.119 A 3.847 3.847 0 0 0 58.39 10.409 A 1.666 1.666 0 0 0 58.65 10.032 Q 58.965 9.415 58.89 8.409 A 3.106 3.106 0 0 0 59.335 8.351 A 3.255 3.255 0 0 0 60.49 7.859 Q 61.24 7.359 61.59 6.559 Q 62.49 4.759 60.74 3.009 Q 59.74 2.259 58.74 1.559 Q 57.74 0.859 56.34 0.609 A 21.061 21.061 0 0 0 52.588 0.268 A 20.445 20.445 0 0 0 48.14 0.759 A 11.161 11.161 0 0 0 47.709 0.874 Q 45.744 1.437 42.69 3.009 Q 39.74 4.609 37.89 7.159 A 12.63 12.63 0 0 0 37.152 8.307 A 14.885 14.885 0 0 0 36.14 10.484 A 12.012 12.012 0 0 0 35.834 11.427 Q 35.603 12.244 35.441 13.209 A 25.436 25.436 0 0 0 35.19 15.209 A 9.624 9.624 0 0 0 35.153 16.051 A 8.604 8.604 0 0 0 36.365 20.484 A 13.267 13.267 0 0 0 37.585 22.222 A 15.295 15.295 0 0 0 40.29 24.759 A 8.409 8.409 0 0 0 40.905 25.362 A 11.463 11.463 0 0 0 41.64 25.959 A 20.764 20.764 0 0 1 42.219 26.409 A 17.279 17.279 0 0 1 43.09 27.159 Q 44.437 28.338 44.437 29.269 A 1.233 1.233 0 0 1 44.39 29.609 Q 43.94 31.009 40.29 32.209 A 3.08 3.08 0 0 1 40.259 32.223 Q 39.569 32.516 38.641 32.516 A 6.221 6.221 0 0 1 38.365 32.509 Q 37.504 32.471 35.573 32.11 A 82.04 82.04 0 0 1 34.29 31.859 A 13.017 13.017 0 0 0 33.969 31.793 Q 32.223 31.459 31.028 31.75 A 3.014 3.014 0 0 0 29.09 33.109 A 6.315 6.315 0 0 0 28.688 34.003 Q 28.396 34.824 28.396 35.627 A 4.425 4.425 0 0 0 28.49 36.534 A 5.356 5.356 0 0 0 28.901 37.754 A 5.752 5.752 0 0 0 30.165 39.459 Q 30.91 40.162 31.909 40.699 A 11.3 11.3 0 0 0 33.615 41.434 A 11.37 11.37 0 0 0 34.969 41.803 Q 36.254 42.071 37.678 42.071 Z M 26.59 37.559 L 26.29 38.609 Q 26.19 39.159 26.09 39.634 Q 25.99 40.109 25.89 40.659 Q 24.49 42.259 22.09 42.259 A 8.109 8.109 0 0 1 20.427 42.099 Q 19.366 41.876 18.554 41.347 A 4.723 4.723 0 0 1 18.04 40.959 A 1.3 1.3 0 0 1 17.605 40.316 Q 17.341 39.505 17.74 38.009 A 7.301 7.301 0 0 0 17.897 37.295 Q 17.957 36.946 17.999 36.543 A 16.835 16.835 0 0 0 18.065 35.684 A 71.809 71.809 0 0 1 18.104 35.001 Q 18.165 34.022 18.24 33.309 L 18.24 33.209 A 11.186 11.186 0 0 0 16.02 34.305 A 10.156 10.156 0 0 0 15.54 34.634 A 702.044 702.044 0 0 0 15.122 34.94 Q 14.284 35.551 14.04 35.734 A 1.7 1.7 0 0 1 13.739 35.912 Q 13.521 36.014 13.24 36.084 A 9.424 9.424 0 0 1 12.822 36.179 Q 12.613 36.221 12.425 36.248 A 5.466 5.466 0 0 1 12.34 36.259 Q 11.613 36.298 11.238 36.453 A 0.991 0.991 0 0 0 11.04 36.559 A 32.261 32.261 0 0 1 9.8 38.614 Q 7.791 41.657 6.099 42.278 A 2.804 2.804 0 0 1 5.84 42.359 Q 4.39 42.809 2.94 42.584 Q 1.49 42.359 0.64 40.859 Q -0.928 39.389 1.346 32.924 A 49.038 49.038 0 0 1 1.44 32.659 A 64.534 64.534 0 0 1 2.573 29.796 Q 3.111 28.52 3.759 27.104 A 135.667 135.667 0 0 1 5.165 24.134 A 131.545 131.545 0 0 1 7.253 20.025 Q 8.574 17.541 9.84 15.459 A 71.291 71.291 0 0 1 15.429 7.512 A 56.27 56.27 0 0 1 20.49 2.059 A 42.576 42.576 0 0 0 21.478 1.628 A 54.73 54.73 0 0 0 22.54 1.134 A 6.158 6.158 0 0 1 23.77 0.694 A 5.115 5.115 0 0 1 24.715 0.559 A 6.643 6.643 0 0 1 25.024 0.552 Q 25.751 0.552 26.511 0.709 A 8.513 8.513 0 0 1 26.94 0.809 Q 28.09 1.109 28.89 1.709 A 3.384 3.384 0 0 1 29.475 2.263 Q 30.405 3.402 29.612 4.952 A 4.961 4.961 0 0 1 29.44 5.259 Q 31.14 6.159 31.59 7.909 Q 30.59 13.509 29.79 19.034 Q 28.99 24.559 28.24 28.284 A 247.853 247.853 0 0 0 27.895 30.03 Q 27.421 32.472 27.215 33.859 Q 26.94 35.709 26.59 37.559 Z M 82.39 37.559 L 82.09 38.609 Q 81.99 39.159 81.89 39.634 Q 81.79 40.109 81.69 40.659 Q 80.29 42.259 77.89 42.259 A 8.109 8.109 0 0 1 76.227 42.099 Q 75.166 41.876 74.354 41.347 A 4.723 4.723 0 0 1 73.84 40.959 A 1.3 1.3 0 0 1 73.405 40.316 Q 73.141 39.505 73.54 38.009 A 7.301 7.301 0 0 0 73.697 37.295 Q 73.757 36.946 73.799 36.543 A 16.835 16.835 0 0 0 73.865 35.684 A 71.809 71.809 0 0 1 73.904 35.001 Q 73.965 34.022 74.04 33.309 L 74.04 33.209 A 11.186 11.186 0 0 0 71.82 34.305 A 10.156 10.156 0 0 0 71.34 34.634 A 702.044 702.044 0 0 0 70.922 34.94 Q 70.084 35.551 69.84 35.734 A 1.7 1.7 0 0 1 69.539 35.912 Q 69.321 36.014 69.04 36.084 A 9.424 9.424 0 0 1 68.622 36.179 Q 68.413 36.221 68.225 36.248 A 5.466 5.466 0 0 1 68.14 36.259 Q 67.413 36.298 67.038 36.453 A 0.991 0.991 0 0 0 66.84 36.559 A 32.261 32.261 0 0 1 65.6 38.614 Q 63.591 41.657 61.899 42.278 A 2.804 2.804 0 0 1 61.64 42.359 Q 60.19 42.809 58.74 42.584 Q 57.29 42.359 56.44 40.859 Q 54.872 39.389 57.146 32.924 A 49.038 49.038 0 0 1 57.24 32.659 A 64.534 64.534 0 0 1 58.373 29.796 Q 58.911 28.52 59.559 27.104 A 135.667 135.667 0 0 1 60.965 24.134 A 131.545 131.545 0 0 1 63.053 20.025 Q 64.374 17.541 65.64 15.459 A 71.291 71.291 0 0 1 71.229 7.512 A 56.27 56.27 0 0 1 76.29 2.059 A 42.576 42.576 0 0 0 77.278 1.628 A 54.73 54.73 0 0 0 78.34 1.134 A 6.158 6.158 0 0 1 79.57 0.694 A 5.115 5.115 0 0 1 80.515 0.559 A 6.643 6.643 0 0 1 80.824 0.552 Q 81.551 0.552 82.311 0.709 A 8.513 8.513 0 0 1 82.74 0.809 Q 83.89 1.109 84.69 1.709 A 3.384 3.384 0 0 1 85.275 2.263 Q 86.205 3.402 85.412 4.952 A 4.961 4.961 0 0 1 85.24 5.259 Q 86.94 6.159 87.39 7.909 Q 86.39 13.509 85.59 19.034 Q 84.79 24.559 84.04 28.284 A 247.853 247.853 0 0 0 83.695 30.03 Q 83.221 32.472 83.015 33.859 Q 82.74 35.709 82.39 37.559 Z M 101.94 41.81 A 8.848 8.848 0 0 0 103.09 41.559 A 7.332 7.332 0 0 0 104.169 41.158 A 5.064 5.064 0 0 0 106.69 38.709 Q 107.74 36.559 106.49 35.259 Q 105.99 34.759 105.49 34.234 A 1.585 1.585 0 0 1 105.102 33.527 Q 105.035 33.271 105.035 32.97 A 2.895 2.895 0 0 1 105.04 32.809 Q 104.19 32.159 102.94 32.159 Q 101.69 32.159 100.415 32.434 A 35.62 35.62 0 0 0 100.098 32.504 A 32.446 32.446 0 0 0 97.965 33.059 Q 97.139 33.305 96.572 33.403 A 4.675 4.675 0 0 1 96.14 33.459 A 0.696 0.696 0 0 1 96.061 33.404 Q 95.927 33.297 95.932 33.166 A 0.272 0.272 0 0 1 95.94 33.109 A 142.721 142.721 0 0 1 97.447 29.863 A 118.912 118.912 0 0 1 99.99 24.859 Q 102.04 21.059 103.79 17.659 A 139.706 139.706 0 0 0 105.05 15.151 A 116.783 116.783 0 0 0 106.915 11.159 A 36.862 36.862 0 0 0 107.167 10.578 A 33.146 33.146 0 0 0 108.99 4.959 A 6.41 6.41 0 0 0 109.008 4.773 Q 109.192 2.518 107.605 1.551 A 4.414 4.414 0 0 0 106.39 1.059 A 7.47 7.47 0 0 0 104.604 0.848 Q 102.684 0.848 100.49 1.759 Q 98.422 2.562 97.44 3.592 A 3.144 3.144 0 0 0 96.64 4.959 A 0.065 0.065 0 0 1 96.636 4.976 Q 96.602 5.082 96.257 5.793 A 98.474 98.474 0 0 1 96.14 6.034 A 58.414 58.414 0 0 0 95.815 6.712 Q 95.647 7.068 95.466 7.462 A 104.64 104.64 0 0 0 95.015 8.459 Q 94.39 9.859 93.54 11.759 A 53.64 53.64 0 0 0 93.444 11.949 Q 92.006 14.821 90.324 19.021 A 186.496 186.496 0 0 0 88.69 23.259 Q 87.54 26.309 86.64 29.034 A 484.154 484.154 0 0 0 86.619 29.099 Q 85.957 31.103 85.473 32.63 A 176.442 176.442 0 0 0 85.165 33.609 Q 84.728 35.016 84.912 35.815 A 1.442 1.442 0 0 0 85.09 36.259 A 4.49 4.49 0 0 0 85.096 36.272 Q 85.295 36.667 85.615 37.109 Q 85.859 37.447 86.06 38.15 A 9.473 9.473 0 0 1 86.19 38.659 A 7.371 7.371 0 0 0 86.404 39.403 Q 86.619 40.022 86.925 40.489 A 3.016 3.016 0 0 0 88.29 41.659 Q 88.99 41.959 89.79 41.959 Q 90.59 41.959 91.39 41.909 Q 93.94 41.984 95.534 42.003 A 82.046 82.046 0 0 0 96.49 42.009 A 99.046 99.046 0 0 0 97.247 42.007 Q 98.419 41.998 99.165 41.959 Q 100.14 41.909 101.09 41.884 A 7.182 7.182 0 0 0 101.94 41.81 Z M 124.488 32.039 A 243.248 243.248 0 0 0 126.565 26.334 Q 127.94 22.409 129.19 18.634 A 1282.701 1282.701 0 0 1 129.937 16.385 Q 130.294 15.315 130.616 14.355 A 646.905 646.905 0 0 1 131.34 12.209 A 0.246 0.246 0 0 1 131.387 12.116 Q 131.485 11.99 131.765 11.934 Q 132.058 11.876 132.839 11.771 A 82.63 82.63 0 0 1 133.315 11.709 Q 134.086 11.611 134.631 11.426 A 3.321 3.321 0 0 0 135.14 11.209 Q 136.39 11.059 136.965 10.209 Q 137.54 9.359 137.84 8.334 Q 138.14 7.309 138.39 6.384 A 3.589 3.589 0 0 1 138.452 6.178 Q 138.553 5.879 138.695 5.643 A 1.809 1.809 0 0 1 139.24 5.059 A 4.126 4.126 0 0 0 139.714 4.731 Q 140.485 4.107 140.465 3.359 A 2.405 2.405 0 0 0 140.187 2.297 A 3.121 3.121 0 0 0 139.69 1.609 A 4.645 4.645 0 0 0 138.759 0.851 A 6.161 6.161 0 0 0 137.715 0.334 Q 136.853 0 136.028 0 A 4.008 4.008 0 0 0 135.34 0.059 Q 132.56 -0.005 129.069 0.724 A 48.842 48.842 0 0 0 125.04 1.759 A 77.218 77.218 0 0 0 124.647 1.879 Q 119.173 3.562 117.29 5.059 A 37.518 37.518 0 0 0 117.165 5.158 Q 116.731 5.504 116.351 5.828 A 22.552 22.552 0 0 0 115.64 6.459 A 7.175 7.175 0 0 0 115.564 6.531 Q 115.066 7.005 114.733 7.508 A 3.941 3.941 0 0 0 114.09 9.159 A 8.132 8.132 0 0 0 114.05 9.544 Q 113.828 12.369 115.89 13.259 Q 117.051 13.763 118.453 13.726 A 8.008 8.008 0 0 0 119.29 13.659 A 1126.629 1126.629 0 0 1 119.114 14.155 Q 118.385 16.212 117.915 17.509 Q 117.62 18.325 117.38 19.046 A 43.149 43.149 0 0 0 117.04 20.109 Q 116.69 21.259 116.39 22.434 A 110.354 110.354 0 0 0 116.375 22.491 Q 116.155 23.355 115.87 24.534 A 322.627 322.627 0 0 0 115.665 25.384 A 2846.496 2846.496 0 0 0 115.622 25.563 Q 115.317 26.839 114.901 28.581 A 8784.392 8784.392 0 0 0 114.59 29.884 Q 113.94 32.609 112.89 36.909 Q 111.589 41.301 114.124 42.551 A 4.709 4.709 0 0 0 115.49 42.959 Q 116.24 43.009 116.965 43.059 A 3.512 3.512 0 0 0 117.207 43.068 Q 117.249 43.068 117.292 43.067 A 3.706 3.706 0 0 0 118.415 42.859 A 2.795 2.795 0 0 0 118.583 42.795 Q 118.928 42.651 119.267 42.404 A 4.863 4.863 0 0 0 119.84 41.909 A 4.006 4.006 0 0 0 120.158 41.546 Q 120.555 41.038 121.017 40.198 A 22.17 22.17 0 0 0 121.465 39.334 A 32.078 32.078 0 0 0 121.805 38.622 Q 122.384 37.371 123.12 35.551 A 136.72 136.72 0 0 0 123.79 33.859 A 217.585 217.585 0 0 0 124.488 32.039 Z M 191.315 3.58 A 16.445 16.445 0 0 0 188.64 6.059 Q 182.39 13.309 179.99 24.109 A 38.304 38.304 0 0 0 179.795 25.051 Q 178.834 29.992 179.544 33.597 A 10.542 10.542 0 0 0 185.44 41.409 A 8.845 8.845 0 0 0 188.202 42.61 A 12.373 12.373 0 0 0 190.64 42.959 Q 195.64 43.259 199.24 40.509 A 16.43 16.43 0 0 0 199.727 40.183 A 17.579 17.579 0 0 0 203.29 36.859 A 37.43 37.43 0 0 0 207.994 29.464 A 45.828 45.828 0 0 0 211.44 19.409 A 43.347 43.347 0 0 0 211.562 18.847 Q 212.677 13.507 212.072 9.528 A 14.261 14.261 0 0 0 211.09 6.009 A 20.042 20.042 0 0 0 210.823 5.294 A 15.887 15.887 0 0 0 210.465 4.459 A 17.206 17.206 0 0 1 210.322 4.143 Q 210.184 3.829 210.104 3.606 A 3.234 3.234 0 0 1 210.04 3.409 Q 208.14 0.859 205.44 0.359 A 7.577 7.577 0 0 0 205.04 0.295 Q 202.363 -0.057 200.64 1.759 A 8.052 8.052 0 0 0 197.88 1.278 Q 197.607 1.278 197.331 1.295 A 9.672 9.672 0 0 0 195.64 1.559 A 11.902 11.902 0 0 0 191.315 3.58 Z M 240.919 22.628 A 27.951 27.951 0 0 0 241.54 18.859 A 20.805 20.805 0 0 0 241.571 18.538 Q 241.704 17.063 241.61 15.713 A 12.166 12.166 0 0 0 237.89 7.509 Q 235.453 5.133 233.219 3.592 A 20.49 20.49 0 0 0 230.44 1.959 A 12.646 12.646 0 0 0 228.723 1.292 A 14.984 14.984 0 0 0 225.74 0.709 A 7.013 7.013 0 0 0 225.068 0.677 Q 223.685 0.677 222.218 1.214 A 12.239 12.239 0 0 0 220.24 2.159 A 3.105 3.105 0 0 0 219.334 3.023 Q 218.62 4.011 218.177 5.814 A 19.331 19.331 0 0 0 217.84 7.559 Q 217.495 10.048 215.48 15.349 A 146.86 146.86 0 0 1 214.09 18.859 A 49.848 49.848 0 0 0 213.418 20.666 A 56.63 56.63 0 0 0 211.74 26.459 A 44.047 44.047 0 0 0 211.666 26.766 A 47.933 47.933 0 0 0 210.79 31.559 A 42.966 42.966 0 0 0 210.748 31.89 A 39.295 39.295 0 0 0 210.44 36.734 Q 210.44 39.259 211.74 40.709 Q 213.04 42.159 214.765 42.684 Q 216.49 43.209 218.265 42.684 A 3.908 3.908 0 0 0 220.161 41.449 A 5.324 5.324 0 0 0 220.94 40.209 Q 225.04 40.959 229.44 38.359 Q 231.49 37.209 233.29 35.509 Q 235.09 33.809 236.565 31.809 Q 238.04 29.809 239.115 27.659 Q 240.19 25.509 240.765 23.259 A 31.319 31.319 0 0 0 240.919 22.628 Z M 189.24 32.609 L 189.19 32.909 L 189.29 33.459 A 7.657 7.657 0 0 0 189.537 34.419 Q 189.697 34.9 189.911 35.283 A 3.463 3.463 0 0 0 190.29 35.834 A 8.703 8.703 0 0 0 190.624 36.208 Q 190.955 36.555 191.219 36.734 A 1.443 1.443 0 0 0 191.44 36.859 Q 191.94 36.459 192.44 36.109 Q 192.94 35.759 193.34 35.259 A 24.442 24.442 0 0 0 196.198 30.75 Q 197.631 27.872 198.64 24.259 A 42.412 42.412 0 0 0 199.814 18.716 Q 200.33 15.02 200.04 11.659 Q 198.09 14.159 195.94 17.409 A 111.036 111.036 0 0 0 194.482 19.668 Q 193.907 20.586 193.421 21.409 A 50.669 50.669 0 0 0 192.54 22.959 Q 190.36 27.051 189.584 30.529 A 18.315 18.315 0 0 0 189.24 32.609 Z M 222.09 31.959 L 221.89 33.859 A 27.198 27.198 0 0 0 223.665 32.874 Q 225.031 32.044 226.015 31.184 A 145.06 145.06 0 0 1 227.546 29.866 A 117.043 117.043 0 0 1 228.99 28.659 Q 231.14 26.509 232.14 23.559 Q 234.101 17.765 230.34 14.473 A 9.796 9.796 0 0 0 229.34 13.709 Q 228.59 13.159 227.09 12.209 Q 226.39 13.809 226.065 15.559 Q 225.74 17.309 225.19 18.959 L 223.84 23.359 L 222.74 28.109 A 17.303 17.303 0 0 1 222.465 29.918 A 15.846 15.846 0 0 1 222.44 30.034 A 30.193 30.193 0 0 0 222.128 31.71 A 33.347 33.347 0 0 0 222.09 31.959 Z M 20.64 15.559 L 18.74 18.409 A 115.611 115.611 0 0 1 17.69 21.291 A 92.275 92.275 0 0 1 16.64 23.934 A 348.898 348.898 0 0 0 15.895 25.74 Q 15.309 27.172 14.84 28.359 L 18.79 28.209 Q 19.19 25.009 19.69 21.859 Q 20.19 18.709 20.64 15.559 Z M 76.44 15.559 L 74.54 18.409 A 115.611 115.611 0 0 1 73.49 21.291 A 92.275 92.275 0 0 1 72.44 23.934 A 348.898 348.898 0 0 0 71.695 25.74 Q 71.109 27.172 70.64 28.359 L 74.59 28.209 Q 74.99 25.009 75.49 21.859 Q 75.99 18.709 76.44 15.559 Z M 18.79 28.309 L 18.79 28.259 Q 18.14 28.309 17.59 28.359 A 15.871 15.871 0 0 0 17.511 28.367 Q 17.067 28.409 17.39 28.409 Q 18.09 28.409 18.79 28.309 Z M 74.59 28.309 L 74.59 28.259 Q 73.94 28.309 73.39 28.359 A 15.871 15.871 0 0 0 73.311 28.367 Q 72.867 28.409 73.19 28.409 Q 73.89 28.409 74.59 28.309 Z M 119.79 13.159 L 119.79 13.109 A 0.626 0.626 0 0 0 119.761 13.11 Q 119.697 13.113 119.691 13.13 A 0.012 0.012 0 0 0 119.69 13.134 A 0.015 0.015 0 0 0 119.698 13.147 Q 119.719 13.159 119.79 13.159 Z" vector-effect="non-scaling-stroke"/></g></svg>