<svg width="144.239" height="86.914" viewBox="0 0 144.239 86.914" xmlns="http://www.w3.org/2000/svg"><g id="svgGroup" stroke-linecap="round" fill-rule="evenodd" font-size="9pt" stroke="#ffffff" stroke-width="0.25mm" fill="#ffffff" style="stroke:#ffffff;stroke-width:0.25mm;fill:#ffffff"><path d="M 67.774 38.33 L 67.774 39.258 A 56.852 56.852 0 0 1 67.185 46.083 A 64.617 64.617 0 0 1 66.919 47.754 Q 66.163 52.149 64.795 56.543 A 80.354 80.354 0 0 1 61.524 65.235 A 74.105 74.105 0 0 1 57.251 73.462 A 69.493 69.493 0 0 1 52.149 80.835 A 47.429 47.429 0 0 1 47.906 85.523 A 41.529 41.529 0 0 1 46.387 86.914 L 39.112 82.715 Q 40.821 79.834 42.212 76.441 A 78.913 78.913 0 0 0 44.657 69.568 A 85.879 85.879 0 0 0 44.727 69.336 A 86.85 86.85 0 0 0 46.656 61.719 Q 47.461 57.813 47.999 53.955 A 114.704 114.704 0 0 0 48.804 46.363 A 104.299 104.299 0 0 0 49.047 41.4 A 88.933 88.933 0 0 0 49.073 39.258 A 683.378 683.378 0 0 0 49.067 36.631 Q 49.062 35.251 49.051 33.718 A 1139.083 1139.083 0 0 0 49.048 33.277 Q 49.024 29.932 48.658 26.465 A 48.528 48.528 0 0 0 47.461 19.702 A 21.278 21.278 0 0 0 46.025 15.681 A 18.311 18.311 0 0 0 44.996 13.819 A 12.789 12.789 0 0 0 40.796 9.668 A 10.252 10.252 0 0 0 37.62 8.427 Q 36.15 8.106 34.424 8.106 Q 31.299 8.106 28.992 9.093 A 10.064 10.064 0 0 0 28.638 9.253 A 12.478 12.478 0 0 0 24.537 12.329 A 15.084 15.084 0 0 0 21.995 16.443 A 17.119 17.119 0 0 0 21.851 16.797 A 31.264 31.264 0 0 0 20.289 22.144 A 41.478 41.478 0 0 0 19.556 27.808 A 96.855 96.855 0 0 0 19.409 31.254 A 80.888 80.888 0 0 0 19.385 33.203 L 19.385 46.826 L 40.43 46.826 L 40.43 54.883 L 19.385 54.883 L 19.385 71.973 L 0 71.973 L 0 36.231 A 42.379 42.379 0 0 1 1.207 25.981 A 37.699 37.699 0 0 1 2.442 21.973 A 34.899 34.899 0 0 1 7.747 12.406 A 32.644 32.644 0 0 1 9.351 10.523 A 31.784 31.784 0 0 1 20.093 2.906 A 32.754 32.754 0 0 1 30.086 0.341 A 40.18 40.18 0 0 1 34.083 0.147 A 32.537 32.537 0 0 1 41.252 0.916 A 28.992 28.992 0 0 1 43.873 1.636 A 31.751 31.751 0 0 1 52.198 5.738 A 33.199 33.199 0 0 1 58.912 11.939 A 36.551 36.551 0 0 1 63.843 19.776 A 42.545 42.545 0 0 1 66.846 28.76 A 41.145 41.145 0 0 1 67.782 37.49 A 41.586 41.586 0 0 1 67.774 38.33 Z M 144.239 19.092 L 135.889 22.608 A 25.187 25.187 0 0 0 133.772 17.634 A 23.041 23.041 0 0 0 133.277 16.797 Q 131.641 14.16 129.371 12.281 A 17.286 17.286 0 0 0 124.219 9.351 A 17.507 17.507 0 0 0 119.621 8.369 A 21.007 21.007 0 0 0 117.92 8.301 A 19.543 19.543 0 0 0 113.684 8.745 A 16.638 16.638 0 0 0 111.207 9.497 Q 108.155 10.694 105.738 12.793 Q 103.321 14.893 101.514 17.676 Q 99.708 20.459 98.487 23.609 A 34.209 34.209 0 0 0 96.68 30.127 A 38.644 38.644 0 0 0 96.097 36.316 A 35.603 35.603 0 0 0 96.094 36.719 A 44.365 44.365 0 0 0 97.291 46.924 Q 98.487 52.002 101.099 56.055 A 20.701 20.701 0 0 0 107.862 62.622 Q 112.012 65.137 117.92 65.137 A 16.6 16.6 0 0 0 123.829 64.087 A 18.258 18.258 0 0 0 128.882 61.206 Q 131.153 59.375 132.862 56.885 Q 134.571 54.395 135.596 51.514 L 144.043 54.883 Q 142.188 59.522 138.965 63.013 Q 135.743 66.504 131.617 68.799 Q 127.491 71.094 122.779 72.241 A 40.001 40.001 0 0 1 113.282 73.389 A 38.403 38.403 0 0 1 103.345 72.119 A 36.979 36.979 0 0 1 94.483 68.506 A 35.578 35.578 0 0 1 87.037 62.842 A 35.792 35.792 0 0 1 81.324 55.469 Q 78.956 51.416 77.662 46.656 A 37.72 37.72 0 0 1 76.368 36.719 A 37.72 37.72 0 0 1 77.662 26.782 Q 78.956 22.022 81.324 17.945 A 35.508 35.508 0 0 1 87.037 10.547 A 35.578 35.578 0 0 1 94.483 4.883 A 36.979 36.979 0 0 1 103.345 1.27 A 38.403 38.403 0 0 1 113.282 0 Q 118.262 0 123.023 1.172 Q 127.784 2.344 131.885 4.712 Q 135.987 7.08 139.185 10.669 A 26.722 26.722 0 0 1 143.754 17.903 A 30.796 30.796 0 0 1 144.239 19.092 Z" vector-effect="non-scaling-stroke"/></g></svg>