<svg width="316pt" height="211pt" viewBox="0 0 316 211" xmlns="http://www.w3.org/2000/svg"><g id="fontsvg1708235784033" stroke-linecap="round" fill-rule="evenodd" stroke="#ffff00" stroke-width="0mm" fill="#FFF"><path d="M 262.2 68.536 A 15.866 15.866 0 0 0 262 65.892 Q 261.203 61.201 257.234 61.041 A 7.056 7.056 0 0 0 256.95 61.036 A 10.016 10.016 0 0 0 255.273 61.188 Q 254.443 61.33 253.516 61.602 A 21.897 21.897 0 0 0 252.2 62.036 Q 249.45 63.036 246.95 63.786 Q 239.462 67.834 234.677 72.455 A 35.657 35.657 0 0 0 232.575 74.661 A 171.443 171.443 0 0 0 226.121 82.54 A 210.753 210.753 0 0 0 222.2 87.786 Q 216.95 95.036 213.2 103.286 Q 209.45 111.536 207.45 118.786 Q 200.881 143.022 210.73 152.893 A 18.355 18.355 0 0 0 212.95 154.786 Q 218.031 158.415 223.697 158.415 A 17.787 17.787 0 0 0 224.075 158.411 A 25.991 25.991 0 0 0 228.007 158.046 Q 231.253 157.477 233.575 156.036 A 228.989 228.989 0 0 1 240.481 151.911 A 209.826 209.826 0 0 1 240.7 151.786 A 23.828 23.828 0 0 1 245.512 149.726 A 30.374 30.374 0 0 1 248.825 148.911 Q 253.45 148.036 260.325 150.161 A 24.842 24.842 0 0 1 263.006 151.147 Q 265.684 152.328 266.846 153.835 A 4.119 4.119 0 0 1 267.7 155.786 Q 268.2 159.286 267.7 163.036 A 33.081 33.081 0 0 0 267.458 165.556 Q 267.352 167.457 267.505 169.134 A 19.677 19.677 0 0 0 267.575 169.786 Q 267.942 172.719 272.729 173.501 A 17.074 17.074 0 0 0 272.95 173.536 Q 277.7 179.536 266.95 188.036 Q 264.2 190.286 261.7 192.286 Q 240.2 206.036 215.95 207.536 Q 200.7 208.536 183.45 202.036 Q 157.7 192.286 154.45 158.286 Q 151.087 133.363 158.054 107.032 A 163.872 163.872 0 0 1 162.45 93.036 A 168.344 168.344 0 0 1 193.288 40.475 A 189.772 189.772 0 0 1 193.45 40.286 Q 206.295 25.043 218.905 17.075 A 61.802 61.802 0 0 1 230.45 11.286 A 81.403 81.403 0 0 1 268.384 2.081 A 91.979 91.979 0 0 1 277.45 2.536 A 62.969 62.969 0 0 1 291.034 5.75 Q 299.503 8.867 305.114 14.417 A 33.883 33.883 0 0 1 312.45 25.286 Q 320.152 43.257 311.076 67.984 A 108.583 108.583 0 0 1 309.7 71.536 A 27.114 27.114 0 0 1 300.347 83.485 A 37.111 37.111 0 0 1 295.45 86.536 Q 286.45 91.536 275.95 91.536 A 25.482 25.482 0 0 1 271.203 91.128 Q 264.706 89.892 262.45 84.911 Q 259.54 78.484 262.041 69.116 A 42.926 42.926 0 0 1 262.2 68.536 Z M 132.95 185.036 L 131.45 190.286 Q 130.95 193.036 130.45 195.411 Q 129.95 197.786 129.45 200.536 A 23.009 23.009 0 0 1 114.253 208.32 A 32.609 32.609 0 0 1 110.45 208.536 Q 97.7 208.536 90.2 202.036 A 6.499 6.499 0 0 1 88.026 198.819 Q 86.706 194.765 88.7 187.286 A 36.502 36.502 0 0 0 89.485 183.712 Q 89.785 181.969 89.995 179.956 A 84.176 84.176 0 0 0 90.325 175.661 A 359.038 359.038 0 0 1 90.52 172.247 Q 90.815 167.506 91.176 164.017 A 124.421 124.421 0 0 1 91.2 163.786 L 91.2 163.286 A 55.928 55.928 0 0 0 80.101 168.764 A 50.781 50.781 0 0 0 77.7 170.411 A 3506.355 3506.355 0 0 0 75.608 171.937 Q 71.419 174.997 70.2 175.911 A 8.5 8.5 0 0 1 68.696 176.799 Q 67.947 177.15 67.048 177.426 A 16.729 16.729 0 0 1 66.2 177.661 A 47.122 47.122 0 0 1 64.108 178.136 Q 62.825 178.395 61.7 178.536 A 30.805 30.805 0 0 0 59.528 178.721 Q 57.458 178.979 56.188 179.503 A 4.955 4.955 0 0 0 55.2 180.036 Q 41.509 204.585 30.493 208.629 A 14.021 14.021 0 0 1 29.2 209.036 Q 21.95 211.286 14.7 210.161 A 14.768 14.768 0 0 1 5.28 204.607 A 22.144 22.144 0 0 1 3.2 201.536 A 9.093 9.093 0 0 1 0.851 197.653 Q -2.475 187.545 7.2 160.536 A 322.67 322.67 0 0 1 12.866 146.221 Q 15.556 139.839 18.796 132.762 A 678.334 678.334 0 0 1 25.825 117.911 Q 36.245 96.534 46.019 79.865 A 387.021 387.021 0 0 1 49.2 74.536 A 356.456 356.456 0 0 1 77.144 34.798 A 281.353 281.353 0 0 1 102.45 7.536 A 212.876 212.876 0 0 0 107.388 5.379 A 273.646 273.646 0 0 0 112.7 2.911 A 30.789 30.789 0 0 1 118.848 0.709 A 25.574 25.574 0 0 1 123.575 0.036 A 33.214 33.214 0 0 1 125.118 0 Q 129.771 0 134.7 1.286 Q 140.45 2.786 144.45 5.786 Q 153.7 12.786 147.2 23.536 Q 155.7 28.036 157.95 36.786 Q 152.95 64.786 148.95 92.411 Q 144.95 120.036 141.2 138.661 A 1239.275 1239.275 0 0 0 139.473 147.387 Q 137.106 159.598 136.075 166.536 Q 134.7 175.786 132.95 185.036 Z M 103.2 75.036 L 93.7 89.286 A 578.054 578.054 0 0 1 88.45 103.692 A 461.377 461.377 0 0 1 83.2 116.911 A 1744.494 1744.494 0 0 0 79.473 125.94 Q 78.009 129.519 76.69 132.793 A 981.947 981.947 0 0 0 74.2 139.036 L 93.95 138.286 Q 95.95 122.286 98.45 106.536 Q 100.95 90.786 103.2 75.036 Z M 93.95 138.786 L 93.95 138.536 Q 90.7 138.786 87.95 139.036 A 79.27 79.27 0 0 0 87.556 139.072 Q 85.47 139.273 86.766 139.285 A 19.496 19.496 0 0 0 86.95 139.286 Q 90.45 139.286 93.95 138.786 Z" vector-effect="non-scaling-stroke"/></g></svg>